HIERARCHY
ROOT Hips
{
	OFFSET 0.000000 0.000000 0.000000
	CHANNELS 6 Xposition Yposition Zposition Zrotation Yrotation Xrotation 
	JOINT LHipJoint
	{
		OFFSET 0.000000 0.000000 0.000000
		CHANNELS 3 Zrotation Yrotation Xrotation
		JOINT LeftUpLeg
		{
			OFFSET 1.363060 -1.794630 0.839290
			CHANNELS 3 Zrotation Yrotation Xrotation
			JOINT LeftLeg
			{
				OFFSET 2.448110 -6.726130 0.000000
				CHANNELS 3 Zrotation Yrotation Xrotation
				JOINT LeftFoot
				{
					OFFSET 2.562200 -7.039590 0.000000
					CHANNELS 3 Zrotation Yrotation Xrotation
					JOINT LeftToeBase
					{
						OFFSET 0.157640 -0.433110 2.322550
						CHANNELS 3 Zrotation Yrotation Xrotation
						End Site
						{
							OFFSET 0.000000 0.000000 0.000000
						}
					}
				}
			}
		}
	}
	JOINT RHipJoint
	{
		OFFSET 0.000000 0.000000 0.000000
		CHANNELS 3 Zrotation Yrotation Xrotation
		JOINT RightUpLeg
		{
			OFFSET -1.305520 -1.794630 0.839290
			CHANNELS 3 Zrotation Yrotation Xrotation
			JOINT RightLeg
			{
				OFFSET -2.542530 -6.985550 0.000000
				CHANNELS 3 Zrotation Yrotation Xrotation
				JOINT RightFoot
				{
					OFFSET -2.568260 -7.056230 0.000000
					CHANNELS 3 Zrotation Yrotation Xrotation
					JOINT RightToeBase
					{
						OFFSET -0.164730 -0.452590 2.363150
						CHANNELS 3 Zrotation Yrotation Xrotation
						End Site
						{
							OFFSET 0.000000 0.000000 0.000000
						}
					}
				}
			}
		}
	}
}
MOTION
Frames: 22
Frame Time: 0.008333
27.936990 15.536925 2.414132 -55.478706 -88.662489 79.152848 -8.938217 -2.766351 -1.277515 -13.483687 -2.623037 -66.591581 -0.833116 3.632603 54.615111 2.355464 9.617284 -13.248172 -0.628700 -0.000000 -11.073599 10.483290 -2.011679 -6.347205 9.507640 -13.328280 -23.940604 1.409517 -4.829866 60.021121 0.286849 6.566718 -15.946397 -0.798400 -0.000001 -76.369201
27.818288 15.531460 2.433707 -58.506773 -88.402132 82.089885 -8.924893 -2.800200 -1.332879 -13.278907 -2.527453 -66.313667 -0.785615 3.648997 55.418616 2.404878 9.751197 -14.108525 -0.812800 0.000000 -11.201600 10.603937 -2.063444 -6.342418 9.457043 -13.416293 -23.940804 1.238478 -4.903437 60.690785 0.323029 6.511706 -14.468050 -0.686300 0.000001 -77.873200
27.700812 15.527503 2.452857 -61.024885 -88.152878 84.520667 -8.916492 -2.828307 -1.384899 -13.063582 -2.439046 -66.017276 -0.738408 3.663515 56.173619 2.455346 9.904557 -14.906136 -0.989700 0.000000 -11.387600 10.716689 -2.103607 -6.339983 9.418456 -13.489077 -23.966997 1.062003 -4.971487 61.373186 0.343509 6.397881 -12.973722 -0.559600 -0.000000 -79.160901
27.584904 15.525061 2.471420 -63.061413 -87.915951 86.472524 -8.913191 -2.851597 -1.434377 -12.846448 -2.355298 -65.704577 -0.692995 3.676327 56.877993 2.504825 10.066034 -15.645388 -1.159699 0.000000 -11.588400 10.821487 -2.133872 -6.339914 9.390235 -13.553012 -24.021863 0.880284 -5.034947 62.066971 0.349684 6.232595 -11.440525 -0.421600 0.000000 -80.273100
27.470352 15.524126 2.489271 -64.662279 -87.692262 87.993426 -8.914684 -2.870129 -1.481757 -12.635482 -2.272662 -65.376709 -0.651389 3.687424 57.527673 2.551598 10.223624 -16.336273 -1.323200 0.000000 -11.771600 10.918809 -2.155778 -6.341374 9.371149 -13.612587 -24.107274 0.693623 -5.094171 62.769017 0.342799 6.026362 -9.842467 -0.274699 0.000000 -81.238000
27.357340 15.524721 2.506374 -65.885315 -87.481940 89.139849 -8.920387 -2.883913 -1.527905 -12.437256 -2.186476 -65.033415 -0.615561 3.696772 58.118986 2.594224 10.365966 -16.991078 -1.481301 -0.000000 -11.917700 11.009256 -2.170148 -6.343582 9.360297 -13.670746 -24.224764 0.502675 -5.149344 63.476900 0.323800 5.792112 -8.157137 -0.121000 -0.000000 -82.061900
27.245694 15.526834 2.522697 -66.796461 -87.284846 89.976584 -8.929582 -2.892573 -1.573536 -12.256851 -2.091884 -64.672990 -0.587319 3.704242 58.648193 2.631750 10.483825 -17.622473 -1.634900 -0.000000 -12.019400 11.093521 -2.177427 -6.345650 9.356931 -13.729529 -24.374846 0.308623 -5.200329 64.188140 0.293056 5.541712 -6.368365 0.038401 -0.000000 -82.726400
27.135277 15.530412 2.538318 -67.458378 -87.100471 90.567277 -8.941607 -2.895498 -1.619041 -12.097578 -1.984873 -64.293531 -0.567978 3.709700 59.113026 2.663738 10.570936 -18.241236 -1.784500 0.000000 -12.079600 11.172183 -2.177899 -6.346624 9.360493 -13.789534 -24.557434 0.113691 -5.246804 64.901072 0.250543 5.285036 -4.476357 0.201800 0.000000 -83.185100
27.026270 15.535474 2.553317 -67.940851 -86.927368 90.980579 -8.955712 -2.892242 -1.664822 -11.960662 -1.862068 -63.892384 -0.558218 3.712871 59.511777 2.690159 10.624426 -18.854038 -1.930400 -0.000001 -12.108900 11.245715 -2.171493 -6.345836 9.370676 -13.849873 -24.771585 -0.079126 -5.288536 65.615013 0.195963 5.026489 -2.499243 0.366700 -0.000001 -83.370900
26.918460 15.541981 2.567821 -68.312759 -86.764706 91.282774 -8.971105 -2.882517 -1.711292 -11.845746 -1.720953 -63.467290 -0.558037 3.713577 59.844870 2.711366 10.644959 -19.463157 -2.072200 0.000000 -12.122199 11.314496 -2.157964 -6.343358 9.387647 -13.910100 -25.016325 -0.266260 -5.325683 66.331368 0.129143 4.762894 -0.478020 0.527900 0.000000 -83.204601
26.811844 15.549914 2.581999 -68.642696 -86.609950 91.542102 -8.987160 -2.866306 -1.758516 -11.749787 -1.560040 -63.017548 -0.566675 3.711678 60.114835 2.727925 10.635794 -20.066358 -2.208899 -0.000000 -12.137400 11.378749 -2.137473 -6.339275 9.412989 -13.967538 -25.290780 -0.444056 -5.358810 67.053493 0.050440 4.481393 1.522546 0.676400 0.000001 -82.603700
26.706319 15.559335 2.595952 -68.969992 -86.464770 91.796307 -9.003398 -2.843147 -1.806025 -11.672081 -1.381329 -62.541230 -0.583091 3.706878 60.323357 2.740761 10.603491 -20.657255 -2.339300 0.000000 -12.168699 11.438838 -2.109700 -6.335186 9.443530 -14.026926 -25.596412 -0.610112 -5.389186 67.786130 -0.039344 4.161109 3.436604 0.799900 0.000000 -81.538100
26.602098 15.570153 2.609888 -69.365544 -86.324284 92.115822 -9.019335 -2.813882 -1.853887 -11.605444 -1.183644 -62.041373 -0.605482 3.699413 60.477471 2.750505 10.554069 -21.228464 -2.462200 0.000000 -12.229200 11.494843 -2.075650 -6.331674 9.484958 -14.083071 -25.932769 -0.762422 -5.418535 68.536261 -0.138377 3.770515 5.163109 0.879700 0.000000 -79.961200
26.499089 15.582414 2.623886 -69.852166 -86.190522 92.522000 -9.034655 -2.778380 -1.901262 -11.548635 -0.971299 -61.518944 -0.632243 3.689171 60.580704 2.758143 10.496094 -21.770237 -2.576600 -0.000000 -12.324000 11.547133 -2.035135 -6.331045 9.533838 -14.142608 -26.303935 -0.901295 -5.449018 69.309964 -0.245039 3.276845 6.628305 0.898100 -0.000000 -77.915400
26.397284 15.596076 2.638092 -70.467881 -86.060754 93.053555 -9.049319 -2.737645 -1.947768 -11.495165 -0.745717 -60.978896 -0.661565 3.676564 60.640299 2.764260 10.435858 -22.275273 -2.681700 0.000000 -12.454900 11.595543 -1.989073 -6.334330 9.594616 -14.203352 -26.711813 -1.027766 -5.482584 70.111932 -0.357602 2.646580 7.750644 0.838300 0.000000 -75.461900
26.296832 15.611101 2.652591 -71.227230 -85.934314 93.725698 -9.063265 -2.692242 -1.992794 -11.442098 -0.510385 -60.425675 -0.691974 3.661871 60.661773 2.769558 10.379707 -22.737877 -2.777599 -0.000001 -12.616700 11.640091 -1.937606 -6.342895 9.667501 -14.267688 -27.160231 -1.143755 -5.520905 70.943817 -0.475202 1.855995 8.477984 0.692500 -0.000000 -72.707200
26.197670 15.627415 2.667458 -72.136467 -85.810197 94.546397 -9.076770 -2.643027 -2.035932 -11.386188 -0.267964 -59.864425 -0.722430 3.645526 60.650286 2.774463 10.331460 -23.155855 -2.864700 -0.000000 -12.800899 11.680263 -1.880954 -6.357165 9.754148 -14.334643 -27.651974 -1.251000 -5.564861 71.802516 -0.597678 0.895740 8.780250 0.464700 0.000000 -69.766199
26.100102 15.644903 2.682707 -73.192895 -85.686704 95.511816 -9.090210 -2.591324 -2.077237 -11.324459 -0.020610 -59.300009 -0.752162 3.627999 60.611004 2.779350 10.293806 -23.530436 -2.943900 -0.000000 -12.996800 11.715221 -1.819189 -6.377136 9.857063 -14.401803 -28.188231 -1.350556 -5.614666 72.680398 -0.725463 -0.225427 8.653743 0.172600 -0.000000 -66.745200
26.004005 15.663479 2.698300 -74.375595 -85.564304 96.606114 -9.104048 -2.537539 -2.116236 -11.256875 0.229041 -58.736433 -0.781102 3.609587 60.546247 2.784462 10.267146 -23.864994 -3.016300 -0.000001 -13.196000 11.744209 -1.752484 -6.401579 9.975887 -14.466791 -28.769574 -1.442336 -5.669541 73.564046 -0.859142 -1.479431 8.122103 -0.154100 0.000001 -63.726200
25.909466 15.682948 2.714321 -75.663378 -85.439244 97.808309 -9.119236 -2.483712 -2.153588 -11.180080 0.480910 -58.178272 -0.809213 3.590760 60.460026 2.789857 10.250193 -24.166936 -3.083300 -0.000000 -13.388000 11.765659 -1.681472 -6.428855 10.114344 -14.522540 -29.394126 -1.525384 -5.728269 74.437242 -0.998624 -2.821122 7.231384 -0.478900 0.000000 -60.757900
25.816243 15.703141 2.730654 -77.017199 -85.312544 99.081097 -9.136436 -2.430526 -2.189453 -11.095933 0.733414 -57.626612 -0.836976 3.571598 60.353069 2.795624 10.241262 -24.443180 -3.146200 0.000000 -13.570800 11.778563 -1.606607 -6.456803 10.271049 -14.565603 -30.059498 -1.598074 -5.789142 75.280280 -1.142897 -4.194961 6.048744 -0.765100 -0.000000 -57.878499
25.724506 15.723826 2.747254 -78.397793 -85.182176 100.386446 -9.156552 -2.379763 -2.224615 -11.002930 0.986925 -57.083580 -0.864771 3.552301 60.227549 2.801755 10.237857 -24.702244 -3.206300 -0.000000 -13.740300 11.781674 -1.528965 -6.482874 10.447157 -14.589172 -30.761733 -1.658695 -5.850270 76.073132 -1.289141 -5.538997 4.656238 -0.983299 -0.000000 -55.103300
